# xmcd
#
# Track frame offsets:
#	182
#	13132
#	26307
#	38185
#	51792
#	65515
#	78205
#	95367
#	112492
#	126642
#	139937
#	152930
#	163840
#	175447
#	189745
#	202885
#	218367
#	232252
#	243107
#	256707
#
# Disc length: 3557
#
# Revision: 2
# Processed by: cddbd v1.5.1PL0 Copyright (c) Steve Scherf et al.
# Submitted via: EasyCDDAExtractor 5.0.6
# Normalized: r1:DSETVAR1
#
DISCID=1d0de314
DTITLE=Various Artist - Big Country Classics Vol. 4
DYEAR=1988
DGENRE=Country
TTITLE0=Dolly Parton - Two Doors Down
TTITLE1=Waylon Jennings - Amanda
TTITLE2=Elvis Presley - Way Down
TTITLE3=Loretta Lynn - Somebody Somewhere
TTITLE4=Ronnie Milsap - Let My Love Be Your Pillow (Live)
TTITLE5=Tom T. Hall - Faster Horses
TTITLE6=Hank Williams Jnr. - All For The Love Of Sunshine
TTITLE7=C. W. McCall - Convoy
TTITLE8=Bellamy Brothers - If I Said You Had A Beautiful Body Would You Hold It Against Me
TTITLE9=Charlie Rich - Behind Closed Doors
TTITLE10=Don Williams - Say It Again
TTITLE11=Waylon Jennings and Willie Nelson - Mama Don't Let Your Babies Grow Up To Be Cowboys
TTITLE12=Marty Robbins - Amongst My Souvenirs
TTITLE13=Charlie Pride - Amazing Love
TTITLE14=Joe Jones and Tammy Wynette - We're Gonna Hold On
TTITLE15=Conway Twitty - Touch The Hand
TTITLE16=John Conlee - Lady Lay Down
TTITLE17=Tanya Tucker - Would You Lay With Me
TTITLE18=Mickey Gilley - Don't The Girls All Get Prettier At Closing Time
TTITLE19=Statler Brothers - Do You Know You Are My Sunshine
EXTD=Trax Music Ltd. TRXCD 5005\n20 Number One Hits Of The 70's
EXTT0=
EXTT1=
EXTT2=
EXTT3=
EXTT4=
EXTT5=
EXTT6=
EXTT7=
EXTT8=
EXTT9=
EXTT10=
EXTT11=
EXTT12=
EXTT13=
EXTT14=
EXTT15=
EXTT16=
EXTT17=
EXTT18=
EXTT19=
PLAYORDER=
